<svg width="123" height="52" viewBox="0 0 123 52" fill="none" xmlns="http://www.w3.org/2000/svg">
<path d="M21.9976 12.037C22.108 12.2616 22.1808 12.5021 22.2135 12.7494L22.8168 21.7192L23.1162 26.2277C23.1193 26.6913 23.1921 27.152 23.3321 27.5948C23.6938 28.4539 24.5638 28.9999 25.5104 28.9618L39.9345 28.0184C40.5591 28.0081 41.1623 28.2417 41.6113 28.6678C41.9855 29.0229 42.2271 29.4874 42.3032 29.987L42.3287 30.2904C41.7319 38.5556 35.6615 45.4494 27.4134 47.229C19.1653 49.0086 10.7074 45.2493 6.63152 37.9923C5.45649 35.884 4.72256 33.5666 4.47281 31.1761C4.36847 30.4685 4.32253 29.7538 4.33543 29.0389C4.32255 20.1776 10.6328 12.5168 19.466 10.6699C20.5292 10.5044 21.5714 11.0672 21.9976 12.037Z" fill="#97A5EB"/>
<path opacity="0.4" d="M27.885 4.33512C37.7648 4.58647 46.0683 11.6909 47.6667 21.26L47.6514 21.3306L47.6078 21.4333L47.6139 21.7151C47.5912 22.0886 47.4471 22.4478 47.1986 22.7381C46.9398 23.0404 46.5862 23.2462 46.1968 23.3261L45.9593 23.3587L29.3176 24.437C28.7641 24.4916 28.2129 24.3131 27.8013 23.9459C27.4582 23.6399 27.2389 23.2269 27.1769 22.7818L26.0599 6.16431C26.0405 6.10812 26.0405 6.04721 26.0599 5.99102C26.0752 5.53297 26.2768 5.1 26.6198 4.78884C26.9627 4.47769 27.4184 4.31428 27.885 4.33512Z" fill="#FFCC91"/>
<path d="M75.1201 21.96V36H71.7001V27.58L68.5601 36H65.8001L62.6401 27.56V36H59.2201V21.96H63.2601L67.2001 31.68L71.1001 21.96H75.1201ZM88.0995 30.24C88.0995 30.56 88.0795 30.8933 88.0395 31.24H80.2995C80.3528 31.9333 80.5728 32.4667 80.9595 32.84C81.3595 33.2 81.8461 33.38 82.4195 33.38C83.2728 33.38 83.8661 33.02 84.1995 32.3H87.8395C87.6528 33.0333 87.3128 33.6933 86.8195 34.28C86.3395 34.8667 85.7328 35.3267 84.9995 35.66C84.2661 35.9933 83.4461 36.16 82.5395 36.16C81.4461 36.16 80.4728 35.9267 79.6195 35.46C78.7661 34.9933 78.0995 34.3267 77.6195 33.46C77.1395 32.5933 76.8995 31.58 76.8995 30.42C76.8995 29.26 77.1328 28.2467 77.5995 27.38C78.0795 26.5133 78.7461 25.8467 79.5995 25.38C80.4528 24.9133 81.4328 24.68 82.5395 24.68C83.6195 24.68 84.5795 24.9067 85.4195 25.36C86.2595 25.8133 86.9128 26.46 87.3795 27.3C87.8595 28.14 88.0995 29.12 88.0995 30.24ZM84.5995 29.34C84.5995 28.7533 84.3995 28.2867 83.9995 27.94C83.5995 27.5933 83.0995 27.42 82.4995 27.42C81.9261 27.42 81.4395 27.5867 81.0395 27.92C80.6528 28.2533 80.4128 28.7267 80.3195 29.34H84.5995ZM96.1237 33.1V36H94.3837C93.1437 36 92.177 35.7 91.4837 35.1C90.7904 34.4867 90.4437 33.4933 90.4437 32.12V27.68H89.0837V24.84H90.4437V22.12H93.8637V24.84H96.1037V27.68H93.8637V32.16C93.8637 32.4933 93.9437 32.7333 94.1037 32.88C94.2637 33.0267 94.5304 33.1 94.9037 33.1H96.1237ZM101.449 26.7C101.849 26.0867 102.349 25.6067 102.949 25.26C103.549 24.9 104.215 24.72 104.949 24.72V28.34H104.009C103.155 28.34 102.515 28.5267 102.089 28.9C101.662 29.26 101.449 29.9 101.449 30.82V36H98.0287V24.84H101.449V26.7ZM108.303 23.68C107.703 23.68 107.21 23.5067 106.823 23.16C106.45 22.8 106.263 22.36 106.263 21.84C106.263 21.3067 106.45 20.8667 106.823 20.52C107.21 20.16 107.703 19.98 108.303 19.98C108.89 19.98 109.37 20.16 109.743 20.52C110.13 20.8667 110.323 21.3067 110.323 21.84C110.323 22.36 110.13 22.8 109.743 23.16C109.37 23.5067 108.89 23.68 108.303 23.68ZM110.003 24.84V36H106.583V24.84H110.003ZM119.082 36L116.942 32.9L115.142 36H111.442L115.122 30.3L111.342 24.84H115.182L117.322 27.92L119.122 24.84H122.822L119.082 30.46L122.922 36H119.082Z" fill="#45464E"/>
</svg>
